/* XPM */
static char * enemy_frame2_xpm[] = {
"32 32 23 1",
" 	c None",
".	c #04193F",
"+	c #031536",
"@	c #262959",
"#	c #F489F6",
"$	c #D279DC",
"%	c #141759",
"&	c #780BF7",
"*	c #680DDD",
"=	c #F07FF7",
"-	c #D840FB",
";	c #CA39FA",
">	c #221E59",
",	c #DC4AFA",
"'	c #F599F7",
")	c #FCFEFE",
"!	c #E9DCFD",
"~	c #D9DEE3",
"{	c #27395A",
"]	c #DD5BFB",
"^	c #E377F6",
"/	c #891DF7",
"(	c #8512F8",
"                                ",
"                                ",
"                                ",
"                                ",
"          ..+   ..+             ",
"         @##$..%&&*.+           ",
"         @####$%&&&&*+          ",
"         @###=---;&&*+          ",
"          >,####=--;&*+         ",
"         >,######=--;*+         ",
"         @####')))))!&*+        ",
"        >,###')))))))!*+        ",
"        @###')~..{))~.%*+       ",
"        @###'~.{)~{~.{~.+       ",
"        @###'~.{)~{~.{~.+       ",
"        @###'~.{)~{~.{~.+       ",
"        >,###'~..{))~.%*+       ",
"         @###')))))))!*+        ",
"         >,###=])))))!*+        ",
"          @####=--;&&*+         ",
"          @#####'))!*+          ",
"          @##^/')))!*+          ",
"         @###^/'))))!*+         ",
"         @##^(])))))!*+         ",
"        @###^(])))))!&*+        ",
"        @##^(,')))))!&*+        ",
"        @##^(,')))))!&*+        ",
"         %&(,##')))!*.+         ",
"          >-,##=--;&*+          ",
"          @###$.%&&*+           ",
"          @##$+ %&&*+           ",
"          @##$+ %&&*+           "};
