/* XPM */
static char * enemy_frame3_xpm[] = {
"32 32 23 1",
" 	c None",
".	c #04193F",
"+	c #031331",
"@	c #393268",
"#	c #F489F6",
"$	c #BF70CD",
"%	c #1E1668",
"&	c #780BF7",
"*	c #5E0ECE",
"=	c #EE79F7",
"-	c #D840FB",
";	c #C334FA",
">	c #332269",
",	c #DE50FA",
"'	c #F6A3F8",
")	c #FCFEFE",
"!	c #DFC8FC",
"~	c #C5CBD3",
"{	c #3B4C6A",
"]	c #E06AFC",
"^	c #D86DF6",
"/	c #9427F7",
"(	c #8D17F8",
"                                ",
"                                ",
"                                ",
"            .+                  ",
"           @#$+   .+            ",
"          @###$+ %&*.+          ",
"          @####$%&&&&*+         ",
"          @###=---;&&*+         ",
"           >,####=--;&*+        ",
"          >,######=--;*+        ",
"          @####')))))!&*+       ",
"         >,###')))))))!*+       ",
"         @###')~..{))~.%*+      ",
"         @###'~.{)~{~.{~.+      ",
"         @###'~.{)~{~.{~.+      ",
"         @###'~....{~....+      ",
"         >,###'~..{))~.%*+      ",
"          @###'))))))))~+       ",
"          >,###=])))))!*+       ",
"           @####=--;&&*+        ",
"           @#####'))!*+         ",
"          @###^/')))!&*+        ",
"         @###^(,'))))!&*+       ",
"        @###^(,')))))!&&*+      ",
"        @###^(,')))))!&&*+      ",
"        @##^(,#')))))~%&*+      ",
"         .%(-,##')))!*..+       ",
"           @####=--;&*+         ",
"           @###$.%&&&*+         ",
"           @###$.%&&*+          ",
"           @##$+ %&&*+          ",
"           @##$+ %&&*+          "};
