/* XPM */
static char * player_frame3_xpm[] = {
"32 32 36 1",
" 	c None",
".	c #2A304E",
"+	c #21253D",
"@	c #595E75",
"#	c #FCFEFE",
"$	c #E5E9EF",
"%	c #7C87A2",
"&	c #94A0BA",
"*	c #DBDFE6",
"=	c #667291",
"-	c #707C9A",
";	c #596382",
">	c #373F5D",
",	c #8791A9",
"'	c #CDD0D7",
")	c #565E7B",
"!	c #4E4D5E",
"~	c #1C1A30",
"{	c #2C2E46",
"]	c #565D77",
"^	c #1C121B",
"/	c #2C2735",
"(	c #424966",
"_	c #ABB5C9",
":	c #272943",
"<	c #8A96B1",
"[	c #362F46",
"}	c #815B58",
"|	c #88869A",
"1	c #5E2C29",
"2	c #6A4649",
"3	c #603C40",
"4	c #FCD7C6",
"5	c #FC6207",
"6	c #FDA216",
"7	c #E6A23B",
"                                ",
"                                ",
"                                ",
"                                ",
"                                ",
"              .....+            ",
"            .@####$%.+          ",
"          .@#######$&%+         ",
"         @####*======-%+        ",
"        @####*========;+        ",
"       @#####*==;.>===;.+       ",
"      @#####*==;@#*===,'+       ",
"     @######*==)!#*===,'+       ",
"     @##*,##*==)~~{]^/){;+      ",
"     ...>,##*======]^^/=;+      ",
"        (_##*======]^^/=;+      ",
"        @####*=====;.:/=;+      ",
"         @###*=========;+       ",
"         @####*===,$&<=;+       ",
"          @########$&&%+        ",
"           [}#####$&&%+         ",
"          @$|1112&&&|3;+        ",
"         @###*,$|1113==;+       ",
"        @###*,###4567<==;+      ",
"        @###*,###4567<==;+      ",
"        @##*,####4567%>=;+      ",
"         .>,#####$&&<;..+       ",
"           @####$&&<=;+         ",
"           @###'.>===;+         ",
"           @###'.>==;+          ",
"           @##'+ >==;+          ",
"           @##'+ >==;+          "};
