/* XPM */
static char * player_frame2_xpm[] = {
"32 32 36 1",
" 	c None",
".	c #2A304E",
"+	c #1D2135",
"@	c #6C7186",
"#	c #FCFEFE",
"$	c #DBE0E8",
"%	c #727D98",
"&	c #94A0BA",
"*	c #CDD2DC",
"=	c #667291",
"-	c #75819E",
";	c #535D7C",
">	c #3D4563",
",	c #959EB3",
"'	c #BABDC6",
")	c #4F5672",
"!	c #1C1A30",
"~	c #33364F",
"{	c #202139",
"]	c #4F546C",
"^	c #1C121B",
"/	c #333040",
"(	c #4C5370",
"_	c #B5BED0",
":	c #26273E",
"<	c #8591AD",
"[	c #3A2F42",
"}	c #5E2C29",
"|	c #906E6C",
"1	c #837B8C",
"2	c #6F5157",
"3	c #61424A",
"4	c #FCC7AF",
"5	c #FC6A09",
"6	c #FDA216",
"7	c #DCA14A",
"                                ",
"                                ",
"                                ",
"                                ",
"                                ",
"                                ",
"              .....+            ",
"            .@####$%.+          ",
"          .@#######$&%+         ",
"        .@####*======-%+        ",
"       @#####*========;+        ",
"      @######*==;.>===;.+       ",
"     @######*==;@#*===,'+       ",
"     @##*,##*==)!!~===){+       ",
"     ...>,##*==)!!~]^/)~;+      ",
"        (_##*======]^^/=;+      ",
"        @###*======]^^/=;+      ",
"        @####*=====;.:/=;+      ",
"         @###*=========;+       ",
"         @####*===,$&<=;+       ",
"          @########$&&%+        ",
"          [}|#####$&&%+         ",
"        .@#$1}}}2&&&13;+        ",
"       @#####*,$1}}}3==;.+      ",
"       @####*,###4567<===;+     ",
"       @###*,####4567<===;+     ",
"        ..>,#####4567%>==;+     ",
"           @#####$&&<;...+      ",
"           @####$&&<=;+         ",
"           @###'.>===;+         ",
"           @###'.>==;+          ",
"           @##'+ >==;+          "};
