/* XPM */
static char * player_frame2_xpm[] = {
"32 32 37 1",
" 	c None",
".	c #20253B",
"+	c #2A304E",
"@	c #CACDD4",
"#	c #FCFEFE",
"$	c #ADB6CA",
"%	c #434B68",
"&	c #94A0BA",
"*	c #8A93AB",
"=	c #667291",
"-	c #8995B0",
";	c #38405E",
">	c #586281",
",	c #D8DDE4",
"'	c #5C6178",
")	c #2E2F47",
"!	c #C7C8CD",
"~	c #1C1A30",
"{	c #545D7A",
"]	c #2E2937",
"^	c #1C121B",
"/	c #545B75",
"(	c #7B85A0",
"_	c #E3E8EE",
":	c #1F1927",
"<	c #717D9B",
"[	c #522D32",
"}	c #D6CCCB",
"|	c #6B484C",
"1	c #5E2C29",
"2	c #878497",
"3	c #362F45",
"4	c #646178",
"5	c #FC793F",
"6	c #FD8E11",
"7	c #FDA216",
"8	c #ADA093",
"                                ",
"                                ",
"                                ",
"                                ",
"                                ",
"             .+++++             ",
"           .+@####$%+           ",
"         .+@#######$&%          ",
"        .@####*======-%         ",
"       .@####*========;         ",
"      .@#####*==;+>===;+        ",
"      .@####*==;@#*===,'        ",
"     .@#####*==)!#*===,'        ",
"     .@#*,##*==)~~{]^/){;       ",
"     .@#*,##*======]^^/=;       ",
"     .++>,##*======]^^/=;       ",
"       .(_###*=====;+:/=;       ",
"        .@###*=========;        ",
"        .@####*===,$&<=;        ",
"         .@########$&&%         ",
"          .[}#####$&&%          ",
"          .(|1112&&&|3          ",
"         .@###*-|1114=;         ",
"         .@##*,##5678<;         ",
"        .@###*,##5678<=;        ",
"        .@##*,###5678<=;        ",
"        .@##*,####$&&<=;        ",
"         .>=,####$&&<;+         ",
"          .@####$&&<=;          ",
"          .@###'+>==;           ",
"          .@##' .>==;           ",
"          .@##' .>==;           "};
