/* XPM */
static char * empty_xpm[] = {
"32 32 256 2",
"  	c #50312E",
". 	c #A66136",
"+ 	c #AF6838",
"@ 	c #AD6737",
"# 	c #B9713A",
"$ 	c #B16938",
"% 	c #4E2F2D",
"& 	c #653B30",
"* 	c #5F382F",
"= 	c #AB6637",
"- 	c #B66F39",
"; 	c #A96437",
"> 	c #AC6638",
", 	c #B56D39",
"' 	c #6C3F30",
") 	c #C1793C",
"! 	c #5C362F",
"~ 	c #60392F",
"{ 	c #59352E",
"] 	c #B16B38",
"^ 	c #C47A3E",
"/ 	c #663B2F",
"( 	c #B26B38",
"_ 	c #C7803F",
": 	c #5D372F",
"< 	c #CA8240",
"[ 	c #B56C39",
"} 	c #9A5835",
"| 	c #9F5D36",
"1 	c #6E4030",
"2 	c #B16A38",
"3 	c #B56E39",
"4 	c #BE753A",
"5 	c #9D5B35",
"6 	c #BE763C",
"7 	c #A46036",
"8 	c #9B5935",
"9 	c #975634",
"0 	c #A66237",
"a 	c #A56036",
"b 	c #6A3D30",
"c 	c #8C5033",
"d 	c #A56338",
"e 	c #B9723B",
"f 	c #945534",
"g 	c #A96337",
"h 	c #663C30",
"i 	c #A25E36",
"j 	c #B26D39",
"k 	c #A15F37",
"l 	c #794732",
"m 	c #B87039",
"n 	c #613A2F",
"o 	c #734432",
"p 	c #C47D3D",
"q 	c #CA8341",
"r 	c #A46338",
"s 	c #BA733B",
"t 	c #BB743B",
"u 	c #B36D39",
"v 	c #BE763B",
"w 	c #B6703B",
"x 	c #C88140",
"y 	c #A35E36",
"z 	c #965835",
"A 	c #B06A39",
"B 	c #643A2F",
"C 	c #9E5F36",
"D 	c #AB6437",
"E 	c #AC6537",
"F 	c #633A2F",
"G 	c #BC743B",
"H 	c #AD6838",
"I 	c #CC8441",
"J 	c #AD6938",
"K 	c #C47D3F",
"L 	c #A15F36",
"M 	c #623B31",
"N 	c #BD753C",
"O 	c #BD773D",
"P 	c #AB6738",
"Q 	c #51312E",
"R 	c #57342E",
"S 	c #995634",
"T 	c #6B3E30",
"U 	c #754531",
"V 	c #53322E",
"W 	c #643C30",
"X 	c #B7723C",
"Y 	c #905234",
"Z 	c #AA6538",
"` 	c #B46E39",
" .	c #63392F",
"..	c #BC753C",
"+.	c #9D5E36",
"@.	c #B7713A",
"#.	c #6A3E33",
"$.	c #9C5B35",
"%.	c #774532",
"&.	c #C97F40",
"*.	c #58342E",
"=.	c #8D5234",
"-.	c #724331",
";.	c #8A4F33",
">.	c #A86739",
",.	c #AE6A38",
"'.	c #B36C38",
").	c #C0773B",
"!.	c #7E4831",
"~.	c #AD6437",
"{.	c #B06C39",
"].	c #C17C3F",
"^.	c #6D4031",
"/.	c #B77039",
"(.	c #6C4131",
"_.	c #B36B38",
":.	c #804932",
"<.	c #B26938",
"[.	c #844B32",
"}.	c #BB7239",
"|.	c #704230",
"1.	c #673E32",
"2.	c #794A36",
"3.	c #9E5B35",
"4.	c #683D30",
"5.	c #633B2F",
"6.	c #AF6637",
"7.	c #955533",
"8.	c #915535",
"9.	c #9B5E36",
"0.	c #CF8541",
"a.	c #925334",
"b.	c #975735",
"c.	c #A76337",
"d.	c #C2793B",
"e.	c #A26037",
"f.	c #C27A3C",
"g.	c #BF763B",
"h.	c #AE6A38",
"i.	c #5E372F",
"j.	c #9A5B36",
"k.	c #CD8541",
"l.	c #B36E3A",
"m.	c #8E5033",
"n.	c #C0793D",
"o.	c #B76F39",
"p.	c #925434",
"q.	c #B66C39",
"r.	c #5C372F",
"s.	c #C57F3F",
"t.	c #A05C34",
"u.	c #B26C39",
"v.	c #6C3F33",
"w.	c #5D372E",
"x.	c #8F5233",
"y.	c #BA733A",
"z.	c #B66E39",
"A.	c #6F4133",
"B.	c #774832",
"C.	c #B76E38",
"D.	c #A15D36",
"E.	c #CC8442",
"F.	c #C0753A",
"G.	c #915333",
"H.	c #AE6838",
"I.	c #834D33",
"J.	c #884C32",
"K.	c #9A5935",
"L.	c #CE8743",
"M.	c #AE6839",
"N.	c #BF773B",
"O.	c #643C32",
"P.	c #BC733A",
"Q.	c #BF783D",
"R.	c #9B5834",
"S.	c #4C2E2E",
"T.	c #985A35",
"U.	c #9E5C35",
"V.	c #7C4D33",
"W.	c #52322E",
"X.	c #744331",
"Y.	c #9D5934",
"Z.	c #C78241",
"`.	c #54332E",
" +	c #7C4731",
".+	c #935635",
"++	c #824D34",
"@+	c #714030",
"#+	c #915133",
"$+	c #694136",
"%+	c #724535",
"&+	c #A86437",
"*+	c #8D4F33",
"=+	c #C98140",
"-+	c #A05E36",
";+	c #B5713B",
">+	c #734634",
",+	c #C67E3F",
"'+	c #6C4134",
")+	c #864C31",
"!+	c #7C4A32",
"~+	c #6F4334",
"{+	c #8D5334",
"]+	c #C87E3E",
"^+	c #CC8643",
"/+	c #794932",
"(+	c #784733",
"_+	c #A66437",
":+	c #BD733C",
"<+	c #854D33",
"[+	c #9C5D37",
"}+	c #9D5B36",
"|+	c #C07A3E",
"1+	c #CC8140",
"2+	c #854C33",
"3+	c #714130",
"4+	c #7B4832",
"5+	c #995835",
"6+	c #884E33",
"7+	c #BA7039",
"8+	c #824C34",
"9+	c #683C2F",
"0+	c #5D3A32",
"a+	c #875034",
"b+	c #C37D3F",
"c+	c #844F34",
"d+	c #764331",
"e+	c #643B31",
"f+	c #A36237",
"g+	c #764736",
"h+	c #AA6137",
"i+	c #674035",
"j+	c #663D2F",
"k+	c #D08943",
"l+	c #6B3F33",
"m+	c #935435",
"n+	c #C98340",
"o+	c #744734",
"p+	c #A86137",
"q+	c #855334",
"r+	c #D28C45",
"s+	c #7F4F33",
"t+	c #BD773C",
"u+	c #B66C38",
"v+	c #7C4C37",
"w+	c #CB8643",
"x+	c #C98442",
"y+	c #B96E3A",
"z+	c #935133",
"A+	c #6B3F32",
"B+	c #5C3A34",
"C+	c #8E5434",
"D+	c #A45D35",
"E+	c #744737",
"F+	c #9D5C37",
"G+	c #864B32",
"V  .1.~+~+~ {   { w.(.2.>+A.* V V n : r.O.#.W `.% & ~+>+o+r.{ S.",
"n z+} Z b.7.J.{ !.f . P.( j #+h h 9 ;.9 5 f J.4.: 9 Y.. 2 ;. +% ",
": #+a v L . x.*.!.. c.) 6 ].9 T 4.y a.. 2 > z h ~ 7 . &+m 9  +% ",
"1.i G n.&+g x.{ 2+3 &+q 6 ].a -.A+[ $.= + ..0 F B @ Z $ ).S G+% ",
"g++ < _ c.+ k : =.).u =+w s ~.|.-.^ >.` K s.; b / :+l.$ _ Y.#+  ",
"2.e L._ ; e Z i.=.&...=+A A <.B.U I >.O r+^+@ 1 & Q.X $ I 3.}   ",
"v+N.t+H ; t ] M z E.e ..2 A q.V.o 1+;+Z._ ).+ 1 & O |+o.I + e.  ",
"2.4 ] } ] ,+@.W 9.k.s ] j.u F.V.1 &.O _ A m $ 1 / N K }.=+f+k   ",
"(.g.j ;.,.I w j+9.k.G J (+,.0.V.^.,+..y.d # $ 1 4.$ e y.) 5+e.  ",
"1.4 u 9 ( q w j+9.k.6 ,.(+{.&.o |.# > 3 a e - ^.9+6.e k ,.F+j V ",
"(.N 6 ; u _ 3 -.+.d.I e }+^+1+X.X.y+E m 5 /., |.4.6.3 8.8+T.3 i+",
"g+t x '.3 v 2 o +.4 t s.P w+^ %.& m+p.+.a+8.2+5.4.$ C 1.B+8.w $+",
"%+j q # @.e ] o C P.= Q.P n._.4+% b b T ' v.^.`.T $ | A+O.[+@.$+",
"%+P Q.y.P j ` o j.) = @.= u $ /+i.8 z }+3.f h+d+& @ 2 f [.@.e i+",
"E+i = N J ] + A.a.< H ` -+J a /+n @ k = ` | _.-.~ i # <.D.G |+$+",
"2.~.[ :+M.[ E ^.p.=+H j 8.,.6.B.& $ k ..) _+z.1 ~ K.( ( = N.Z.0+",
"M ++c+++l !+%.~ m+=+@ z.d O u+B.& _.r Z.d.; C.|.n } - ` ; N.Z.  ",
"e+6+=.4+d+:.%.* a.N = m ` K }.s+F - A _ d.H 4 !+4.i y.@.2 ).Z.W.",
"%+D+q.; 8 C.i / Y q.U.- u.].4 q+ .o.v q ) ` ]+a+& i t /.'.0 ;+W.",
"M S , H 8 t C  .Y z.b.- s s._.o / 6 p n+) l.&.c+B t.s /.( 8 J Q ",
": $.g.J 7 g.| & Y [ c = ..K ~.' b ^ p ) 4 >.]+c+& 8 {.'.> R.H W.",
"n $.f.;+c.f.-+& f p+m.@ }.` h+3+b ^ f.v v >.O l T 3.] 0 &+} | M ",
"l+5 x X &+< r B ++x.I.z T.C+c e+' ^ s f.x+r , %.n =.8.I.{+!.<+0+",
"#.e.k+X > I d B { 5.* & B 5.R Q X.6 A K w+H., U Q ~ ! * F w.V S.",
"v.r q + Z p f+/ [.g .+$.:.U.7.' 3+C.[+l.E.M.[ l ~ c c Y i f c   ",
"& e.n.. 9 u.$.B m.) k u.;.H.. ' 3+7+C M.p > [ l  .= Z Y.# > |   ",
"i.c.o.y *+H.z  .j.=+d '..+/.D U @+<.z Z 4 = [ l T ( ,.{.b+y U.Q ",
"n H.3 @ 3.Z K.* r E.= - d O <.l ' g <+L ` > + ^.4.( 4 x L.5+7.  ",
"M 7 7 3 = p+5 w.C ^ ; m @.b+7 U ' D :.k E a Z ~ 4.E Z ].L.5+*+  ",
"* m.G.3 + a } : {+y.| @.@ +.R.U 1 D.:.k y t.= F n t.8 X p b.[.% ",
": )+2+f+c.D.c *.8+0 9 0 G.[.J.' h 7. +G.} R.| F ! b.$._+@ 6+ +% ",
"  *.r.#.'+l+r.% M #.1.O.R R `.    { R *.r.r.r.    r.r.1.'+{ R S."};
