/* XPM */
static char *a54e4b747a094377dfbb557dce0c82f42OIk5zleFx7PKUW2[] = {
/* columns rows colors chars-per-pixel */
"32 32 21 1 ",
"  c #644F40",
". c #625245",
"X c #685647",
"o c #78604F",
"O c #7E6451",
"+ c #805F3B",
"@ c #90673C",
"# c #8D6E4E",
"$ c #986F43",
"% c #91704D",
"& c #95724D",
"* c #9E764B",
"= c #99744D",
"- c #826650",
"; c #A2784B",
": c #A67A4B",
"> c #B2804C",
", c #B6824C",
"< c #B8844E",
"1 c #BE8A52",
"2 c #C08C54",
/* pixels */
"2..222222;;222222;;222222;;22222",
"2XX222222;;222222**222222;;22222",
"2OO222222;;222222%%222222;;22222",
"2--222222;;222222%%222222::22222",
"2%%222222;;222222%%222222,,22222",
"2%%222222;;222222##222222>>22222",
"2%%222222;;222222OO222222;;22222",
"2&&222222::222222oo222222;;22222",
"2;;222222,,222222..222222;;22222",
"2::222222<<222222..222222;;22222",
"2,,22222222222222..222222;;22222",
"2>>22222222222222..222222;;22222",
"2;;22222222222222..222222;;22222",
"2**22222211222222..222222;;22222",
"2%%222222,,222222..222222;;22222",
"2%%222222>>222222XX222222;;22222",
"2%%222222;;222222OO222222;;22222",
"2%%222222::222222--222222;;22222",
"2%%222222,,222222%%222222;;22222",
"2##222222>>222222==222222;;22222",
"2OO222222;;222222,,222222;;22222",
"2oo222222;;222222,,222222::22222",
"2..222222;;222222,,222222,,22222",
"2..222222;;222222<<222222<<22222",
"2..222222;;222222222222222222222",
"2..222222;;222222222222222222222",
"2..222222;;222222222222222222222",
"2..222222;;222222222222221122222",
"2..222222;;22222222222222,,22222",
"2XX222222;;22222211222222>>22222",
"2OO222222;;222222,,222222;;22222",
"$  $$$$$$++$$$$$$@@$$$$$$++$$$$$"
};
