/* XPM */
static char *bd02a44c317f47838a8c02fc0aa887b17oO9YCVPxLJmGxoT[] = {
/* columns rows colors chars-per-pixel */
"60 60 15 1 ",
"  c None",
". c #1D1D29",
"X c #232330",
"o c #313144",
"O c #343448",
"+ c #3A3A50",
"@ c #46465A",
"# c #4B4B5F",
"$ c #57576A",
"% c #7B7B89",
"& c #868694",
"* c #9A9AA5",
"= c #ACACB4",
"- c #DBDBDE",
"; c #F8F8F8",
/* pixels */
"XXXXXXXXXXXXXXXXXXXXXXXXXXXXXXXXXXXXXXXXXXXXXXXXXXXXXXXXXXX.",
"+++++++++++++++++++++++++++++++++++++++++++++++++++++++++++o",
"+#=========*+#===============================*+#=========*+o",
"+$;;;;;;;;;-+$;;;;;;;;;;;;;;;;;;;;;;;;;;;;;;;-+$;;;;;;;;;-+o",
"+$;;;;;;;;;-+$;;;;;;;;;;;;;;;;;;;;;;;;;;;;;;;-+$;;;;;;;;;-+o",
"+$;;;;;;;;;-+$;;;;;;;;;;;;;;;;;;;;;;;;;;;;;;;-+$;;;;;;;;;-+o",
"+$;;;;;;;;;-+$;;;;;;;;;;;;;;;;;;;;;;;;;;;;;;;-+$;;;;;;;;;-+o",
"+$;;;;;;;;;-+$;;;;;;;;;;;;;;;;;;;;;;;;;;;;;;;-+$;;;;;;;;;-+o",
"+$;;;;;;;;;-+$;;;;;;;;;;;;;;;;;;;;;;;;;;;;;;;-+$;;;;;;;;;-+o",
"+$;;;;;;;;;-+$;;;;;;;;;;;;;;;;;;;;;;;;;;;;;;;-+$;;;;;;;;;-+o",
"+@&&&&&&&&&%+@&&&&&&&&&&&&&&&&&&&&&&&&&&&&&&&%+@&&&&&&&&&%+o",
"+++++++++++++++++++++++++++++++++++++++++++++++++++++++++++o",
"+#=========*+O                                +#=========*+o",
"+$;;;;;;;;;-+o                                +$;;;;;;;;;-+o",
"+$;;;;;;;;;-+o                                +$;;;;;;;;;-+o",
"+$;;;;;;;;;-+o                                +$;;;;;;;;;-+o",
"+$;;;;;;;;;-+o                                +$;;;;;;;;;-+o",
"+$;;;;;;;;;-+o                                +$;;;;;;;;;-+o",
"+$;;;;;;;;;-+o                                +$;;;;;;;;;-+o",
"+$;;;;;;;;;-+o                                +$;;;;;;;;;-+o",
"+$;;;;;;;;;-+o                                +$;;;;;;;;;-+o",
"+$;;;;;;;;;-+o                                +$;;;;;;;;;-+o",
"+$;;;;;;;;;-+o                                +$;;;;;;;;;-+o",
"+$;;;;;;;;;-+o                                +$;;;;;;;;;-+o",
"+$;;;;;;;;;-+o                                +$;;;;;;;;;-+o",
"+$;;;;;;;;;-+o                                +$;;;;;;;;;-+o",
"+$;;;;;;;;;-+o                                +$;;;;;;;;;-+o",
"+$;;;;;;;;;-+o                                +$;;;;;;;;;-+o",
"+$;;;;;;;;;-+o                                +$;;;;;;;;;-+o",
"+$;;;;;;;;;-+o                                +$;;;;;;;;;-+o",
"+$;;;;;;;;;-+o                                +$;;;;;;;;;-+o",
"+$;;;;;;;;;-+o                                +$;;;;;;;;;-+o",
"+$;;;;;;;;;-+o                                +$;;;;;;;;;-+o",
"+$;;;;;;;;;-+o                                +$;;;;;;;;;-+o",
"+$;;;;;;;;;-+o                                +$;;;;;;;;;-+o",
"+$;;;;;;;;;-+o                                +$;;;;;;;;;-+o",
"+$;;;;;;;;;-+o                                +$;;;;;;;;;-+o",
"+$;;;;;;;;;-+o                                +$;;;;;;;;;-+o",
"+$;;;;;;;;;-+o                                +$;;;;;;;;;-+o",
"+$;;;;;;;;;-+o                                +$;;;;;;;;;-+o",
"+$;;;;;;;;;-+o                                +$;;;;;;;;;-+o",
"+$;;;;;;;;;-+o                                +$;;;;;;;;;-+o",
"+$;;;;;;;;;-+o                                +$;;;;;;;;;-+o",
"+$;;;;;;;;;-+o                                +$;;;;;;;;;-+o",
"+$;;;;;;;;;-+o                                +$;;;;;;;;;-+o",
"+$;;;;;;;;;-+o                                +$;;;;;;;;;-+o",
"+$;;;;;;;;;-+o                                +$;;;;;;;;;-+o",
"+$;;;;;;;;;-+o                                +$;;;;;;;;;-+o",
"+$;;;;;;;;;-+o                                +$;;;;;;;;;-+o",
"+$;;;;;;;;;-+o                                +$;;;;;;;;;-+o",
"+$;;;;;;;;;-+o                                +$;;;;;;;;;-+o",
"+$;;;;;;;;;-+o                                +$;;;;;;;;;-+o",
"+$;;;;;;;;;-+o                                +$;;;;;;;;;-+o",
"+$;;;;;;;;;-+o                                +$;;;;;;;;;-+o",
"+$;;;;;;;;;-+o                                +$;;;;;;;;;-+o",
"+$;;;;;;;;;-+o                                +$;;;;;;;;;-+o",
"+$;;;;;;;;;-+o                                +$;;;;;;;;;-+o",
"+$;;;;;;;;;-+o                                +$;;;;;;;;;-+o",
"+$;;;;;;;;;-+o                                +$;;;;;;;;;-+o",
"+$;;;;;;;;;-+o                                +$;;;;;;;;;-+o"
};
