/* XPM */
static char * exit_xpm[] = {
"32 32 141 2",
"  	c None",
". 	c #4C6971",
"+ 	c #51516D",
"@ 	c #121229",
"# 	c #FEFEFE",
"$ 	c #1C1C33",
"% 	c #F6F6F6",
"& 	c #313145",
"* 	c #FFFFFF",
"= 	c #FFFFFF",
"- 	c #353549",
"; 	c #FFFFFF",
"> 	c #2B2B3E",
", 	c #1E1E32",
"' 	c #6A6A8E",
") 	c #FFFFFF",
"! 	c #2A2A3D",
"~ 	c #FFFFFE",
"{ 	c #8A8A96",
"] 	c #35354A",
"^ 	c #303043",
"/ 	c #4E4E69",
"( 	c #646486",
"_ 	c #44445D",
": 	c #5A5A79",
"< 	c #121229",
"[ 	c #13132A",
"} 	c #1F1F32",
"| 	c #F4F4F5",
"1 	c #FEFEFD",
"2 	c #1D1D34",
"3 	c #1F1F33",
"4 	c #FDFDFC",
"5 	c #1D1D30",
"6 	c #FFFFFE",
"7 	c #0E0E24",
"8 	c #1A1A30",
"9 	c #25253A",
"0 	c #1C1C2F",
"a 	c #7C7C8A",
"b 	c #7F7F8C",
"c 	c #80808D",
"d 	c #2A2A3F",
"e 	c #82828F",
"f 	c #303042",
"g 	c #F4F4F5",
"h 	c #4A4A5E",
"i 	c #A7A7B0",
"j 	c #525265",
"k 	c #A5A5AF",
"l 	c #9898A3",
"m 	c #2D2D40",
"n 	c #2F2F41",
"o 	c #717180",
"p 	c #2B2B3D",
"q 	c #5D5D6F",
"r 	c #2E2E40",
"s 	c #2E2E41",
"t 	c #898996",
"u 	c #FAFAF9",
"v 	c #FFFFFF",
"w 	c #353549",
"x 	c #2C2C3F",
"y 	c #36364B",
"z 	c #2C2C3E",
"A 	c #F6F6F6",
"B 	c #49495D",
"C 	c #747483",
"D 	c #8E8E9A",
"E 	c #FBFBFB",
"F 	c #EBEBEC",
"G 	c #F4F4F5",
"H 	c #D5D5D9",
"I 	c #9B9BA6",
"J 	c #F3F3F3",
"K 	c #BBBBC3",
"L 	c #FFFFFF",
"M 	c #9494A0",
"N 	c #F0F0F1",
"O 	c #F5F5F5",
"P 	c #7C7C8A",
"Q 	c #4A4A5E",
"R 	c #9A9AA5",
"S 	c #FEFEFD",
"T 	c #9D9DA8",
"U 	c #BBBBC2",
"V 	c #F1F1F2",
"W 	c #BABAC1",
"X 	c #B9B9C1",
"Y 	c #6E6E7E",
"Z 	c #FBFBFA",
"` 	c #EAEAEC",
" .	c #FAFAF9",
"..	c #E9E9EB",
"+.	c #F3F3F4",
"@.	c #747482",
"#.	c #8D8D9A",
"$.	c #9999A5",
"%.	c #7E7E8B",
"&.	c #787886",
"*.	c #777785",
"=.	c #92929E",
"-.	c #A3A3AD",
";.	c #D4D4D8",
">.	c #9696A2",
",.	c #3F3F54",
"'.	c #8E8E9B",
").	c #F7F7F7",
"!.	c #414156",
"~.	c #DDDDE0",
"{.	c #E6E6E8",
"].	c #7B7B89",
"^.	c #707080",
"/.	c #505063",
"(.	c #A2A2AC",
"_.	c #F2F2F2",
":.	c #BEBEC5",
"<.	c #B3B3BB",
"[.	c #45455A",
"}.	c #5A5A6C",
"|.	c #727281",
"1.	c #6D6D7D",
"2.	c #C6C6CC",
"3.	c #C3C3C9",
"4.	c #80808E",
"5.	c #717180",
"6.	c #5E5E70",
"7.	c #93939F",
"8.	c #636374",
"9.	c #858592",
"0.	c #8B8B98",
"a.	c #838391",
"b.	c #C7C7CD",
"c.	c #C5C5CB",
"d.	c #848491",
"e.	c #E0E0E3",
"f.	c #BABAC2",
"g.	c #D1D1D6",
"h.	c #C0C0C7",
"i.	c #A4A4AF",
"j.	c #DEDEE1",
"f > p > > ! n m ! > > > > > > > > > > > > > > ! s r ! > > ! x z ",
"[.<.:.U W 3.6.4.2.X K K K K K K K K K K K U W c.Y Y b.X f.h.i.y ",
"h | * * * * o k * ~ * * * * * * * * * * * * ~ * t { * ~ * * j.- ",
"B {.% _.V 1 1.T * N J J J J J J J J J J J J N * a.d.* N V u g.- ",
"h ).* * * * |.i * * * * * * * * * * * * * * * * { 0.* * * * e.- ",
"!.'.>.M M R j ^.-.$.I I I I I I I I I I I I R (.8.q T 7.M l 9.] ",
",.&.%.a a c /.9 5 } , , , , , , , , , , , , 3 0 d }.e ].a b o ] ",
"h +.* * ~ * *.                                  8 =.* 1 * * ~.- ",
"B ..u O | * @.                                  2 #.* J O 4 ;.- ",
"B ` Z % % * C                                   $ D * | % 1 H - ",
"B F E % % * C                                   $ D * | % # H - ",
"B F E % % * C                                   $ D * | % # H - ",
"B F E % % * C                                   $ D * | % # H - ",
"B F E % % * C                                   $ D * | % # H - ",
"B F E % % * C                                   $ D * | % # H - ",
"B F E % % * C                                   $ D * | % # H - ",
"B F E % % * C                                   $ D * | % # H - ",
"B F E % % * C                                   $ D * | % # H - ",
"B F E % % * C                                   $ D * | % # H - ",
"B F E % % * C                                   $ D * | % # H - ",
"B F E % % * C                                   $ D * | % # H - ",
"B F E % % * C                                   $ D * | % # H - ",
"B F E % % * C                                   $ D * | % # H - ",
"B F E % % * C                                   $ D * | % # H - ",
"B F E % % * C                                   $ D * | % # H - ",
"B F E % % * C                                   $ D * | % # H - ",
"B F E % % * C                                   $ D * | % # H - ",
"B F E % % * C                                   $ D * | % # H - ",
"B F E % % * C                                   $ D * | % # H - ",
"B F E % % * C                                   $ D * | % # H - ",
"B F E % % * C                                   $ D * | % # H - ",
"B F E % % * C                                   $ D * | % # H - "};
