/* XPM */
static char *result[] = {
/* columns rows colors chars-per-pixel */
"32 32 256 2 ",
"   c #2A272D",
".  c #302D32",
"X  c #6E6964",
"o  c #2F2C31",
"O  c #2E2B30",
"+  c #726D67",
"@  c #28262C",
"#  c #2B282E",
"$  c #363337",
"%  c #2D2A30",
"&  c #2C292F",
"*  c #2D2A2F",
"=  c #585452",
"-  c #6A6561",
";  c #635E5B",
":  c #312E33",
">  c #524E4E",
",  c #4E4A4A",
"<  c #68635F",
"1  c #65615D",
"2  c #514D4D",
"3  c #3D3A3C",
"4  c #373438",
"5  c #6D6863",
"6  c #494546",
"7  c #29262C",
"8  c #706B66",
"9  c #4B4748",
"0  c #333035",
"q  c #615C59",
"w  c #6F6A65",
"e  c #645F5C",
"r  c #5E5A57",
"t  c #6D6864",
"y  c #555150",
"u  c #534F4E",
"i  c #353236",
"p  c #2D2B30",
"a  c #444042",
"s  c #77726D",
"d  c #322F34",
"f  c #2E2B31",
"g  c #474344",
"h  c #2B292E",
"j  c #67625E",
"k  c #343136",
"l  c #504C4C",
"z  c #716C67",
"x  c #6F6A66",
"c  c #211F26",
"v  c #716B66",
"b  c #393639",
"n  c #736E69",
"m  c #27252C",
"M  c #65605C",
"N  c #625D5A",
"B  c #565250",
"V  c #3F3B3E",
"C  c #484445",
"Z  c #726C67",
"A  c #65605D",
"S  c #625E5A",
"D  c #746F69",
"F  c #595453",
"G  c #27242A",
"H  c #373337",
"J  c #383438",
"K  c #7B756F",
"L  c #5F5B58",
"P  c #4C4848",
"I  c #232128",
"U  c #4F4B4B",
"Y  c #7A756F",
"T  c #3B383B",
"R  c #78736D",
"E  c #76706B",
"W  c #726D68",
"Q  c #393539",
"!  c #25232A",
"~  c #29262C",
"^  c #6B6661",
"/  c #5A5654",
"(  c #2F2B31",
")  c #66615D",
"_  c #353237",
"`  c #534E4D",
"'  c #696560",
"]  c #76716B",
"[  c #7D7771",
"{  c #4E4949",
"}  c #64605C",
"|  c #7F7973",
" . c #66615E",
".. c #6B6662",
"X. c #827C75",
"o. c #4A4647",
"O. c #78726C",
"+. c #2F2D31",
"@. c #575251",
"#. c #7D7872",
"$. c #3A373A",
"%. c #827D75",
"&. c #6C6762",
"*. c #2F2C32",
"=. c #605B58",
"-. c #625E5A",
";. c #615D5A",
":. c #79736E",
">. c #423E41",
",. c #686460",
"<. c #6E6863",
"1. c #544F4F",
"2. c #5D5956",
"3. c #2A272E",
"4. c #343135",
"5. c #625D5B",
"6. c #686360",
"7. c #474345",
"8. c #363237",
"9. c #7C7670",
"0. c #5E5957",
"q. c #6E6965",
"w. c #635F5B",
"e. c #3A363A",
"r. c #5A5554",
"t. c #5A5553",
"y. c #27252B",
"u. c #736D68",
"i. c #232027",
"p. c #494547",
"a. c #2E2C31",
"s. c #696460",
"d. c #5C5856",
"f. c #252229",
"g. c #423F41",
"h. c #322E33",
"j. c #67625F",
"k. c #373538",
"l. c #413E40",
"z. c #2C2A30",
"x. c #645F5B",
"c. c #26232B",
"v. c #252329",
"b. c #807B75",
"n. c #87817A",
"m. c #605C59",
"M. c #746E69",
"N. c #7A746F",
"B. c #7B7670",
"V. c #433F41",
"C. c #7E7872",
"Z. c #807A73",
"A. c #403C3F",
"S. c #67635F",
"D. c #464244",
"F. c #444142",
"G. c #242128",
"H. c #55514F",
"J. c #79746D",
"K. c #3F3C3E",
"L. c #524D4D",
"P. c #514C4C",
"I. c #7F7A73",
"U. c #706A65",
"Y. c #75706A",
"T. c #454143",
"R. c #5B5755",
"E. c #353136",
"W. c #514D4C",
"Q. c #4D494A",
"!. c #5B5654",
"~. c #5E5956",
"^. c #312F34",
"/. c #312D32",
"(. c #4C4849",
"). c #7E7972",
"_. c #2F2D33",
"`. c #5F5A58",
"'. c #3D393C",
"]. c #383539",
"[. c #2A282D",
"{. c #2A282E",
"}. c #585352",
"|. c #2C2A2F",
" X c #242229",
".X c #5C5755",
"XX c #484446",
"oX c #5D5856",
"OX c #3C393C",
"+X c #7A746E",
"@X c #413D3F",
"#X c #3E3B3D",
"$X c #39363A",
"%X c #716C66",
"&X c #4F4A4A",
"*X c #66625D",
"=X c #5C5756",
"-X c #5D5957",
";X c #4F4B4B",
":X c #746E68",
">X c #54504F",
",X c #7B7671",
"<X c #1D1B23",
"1X c #6F6B65",
"2X c #2B282E",
"3X c #565150",
"4X c #595554",
"5X c #746E6A",
"6X c #817C74",
"7X c #434042",
"8X c #6C6662",
"9X c #585553",
"0X c #868079",
"qX c #333034",
"wX c #77726C",
"eX c #534F4F",
"rX c #2E2A2F",
"tX c #3E3B3E",
"yX c #716C68",
"uX c #706C66",
"iX c #302E32",
"pX c #3E3A3D",
"aX c #696561",
"sX c #373437",
"dX c #79746E",
"fX c #4B4848",
"gX c #847E78",
"hX c #504C4B",
"jX c #6F6964",
"kX c #635E5B",
"lX c #6D6963",
"zX c #847D76",
"xX c #7C7771",
"cX c #837D77",
"vX c #6B6763",
"bX c #5D5858",
"nX c #2A292E",
"mX c #64605D",
"MX c #7D7871",
"NX c #333135",
"BX c #2D292F",
"VX c #6B6561",
"CX c #817A75",
"ZX c #534E4F",
"AX c #3B383C",
"SX c #88837C",
"DX c #76716A",
"FX c #29262B",
"GX c #7C7871",
"HX c #8F8981",
"JX c #3B373B",
"KX c #88827C",
"LX c #8C877F",
"PX c #87827A",
"IX c #918B83",
"UX c #201E26",
/* pixels */
"@ Q : i Q e.8. Xy.8.].a.: J k : & d 4 d : . . *.p @ I . k $ ( UX",
"* }.6.v I.%.:.hX: g.s.O.u.E 9.yX>.g.D 5Xs 5X&.s t a & }.%XxX- h.",
"* -X5 D Y.K gXe o > PXIXLXKXHXE a A.] #.n | K D K 0.h j.zXY q.$.",
"f 5.Z U.+ w.oX4X. l.j R ).+XdX%X3 3 + + n u.W aXM @.O = w ) ) $X",
"c.P.X q W - H.W.O . P.~.; ; N U h.@ B < - 1 ,.e L 2 7 9 F r } $X",
"v.$.hX, P.2 7.H f.  rXd 4.O %   y.v._ { l , u u 2 pXI OXa D.fX& ",
"z.i J b o c 0 (.5.8 6.XXy.G ZXR ] K ;.F.C *.G.H J H $ h +.4.$ {.",
"C z s dX1.c.Q.C.0XGXcX<.o #X- I.O.C.X.x ] 3 NXE Z.B.N.W aX1 `.OX",
"V.v :.O.q.b P w lX; DX1 p 9 uX} M.Z M.x A A.6 v w n 6X9.O.; j.#X",
"4 r.U.mXl O T.S 8XX j U   b m.q ^ x.=.x.4X$ T ) `.; / 5 X U.q E.",
"8.C F o.O c i U P > 2 V f.i.3 9 9 W.>X6 b v.BXQ.` > Q.q F > 9   ",
"@ {.#   G.[.[.# #   4 _ 4 ^.% % % % iX$ $ 0 E.0 f [.|.&     % f.",
"@ D.-X .vXyXx 2   V t xX6XI.9.2.# * < ,X#.wXY Z.Y 7Xi.O a !.5.Q ",
"& N C.%.n.| 0X).b =XZ.+ ..0.w 6.4.K.Y z - X Z J.| 0.{.sX^ W R l.",
"% r.;.8 z - + 1 4 y w A &.L 5 ;.d V M t + q.n ) N B o k 2.%X,.J ",
"J / oXS S - } l . F.m.=XF t.= eXk $X*XS.:X<.8 }.U u O /.1.x.d.d ",
"( U > u y y 1.A.I sXa , 7.fXP l.G 7 2 eX1.y 3X> g T  X7 P > y k ",
"! h ( a.|.* O p p _ 8.: *._.f   y.*.: h 7 # # . d # # # h f 0   ",
"4 = j r.[.e.j gX:.MXcXx =.K.0 6.[ X.t T.  ` ..s x u.M ` 4XR.l.* ",
", n s +XT C Y.).J.X v O.Y.hX3 8 K [ dX..4.9X[ [ :.J.w M 6X6X8 0 ",
"g.t.+ lXJXJ s.jX5 M.<.' r W.$ A j.;.< r $ , M 5 X 1 ,.z 5 t ..T ",
"  / w.j.#Xi .X; M .Xm.N @.7XqXr A > 3XP * D.2.; ^ 1Xe VXX ; r._.",
"@ o.D.g o FXp.7.}.> 9 , l k.G g 7.U { : <X4 6 B ~.< R.t./ >X9 & ",
"i.@ o f $ O *.% O * Q '.E.*.. O & nX@ % _ ( p : ].3 $.qX( 3.  I ",
"|.> q.CXn.SX9./ ! T.#.B.v | %.1 7 y.bXb.n.Y t w.>.f.tX!.e d.6 O ",
"V.+ ] CXb.:.W D tXL wXD B.R Y.&.3 V + + Y.8 #.9.< .  .%.N.+X:Xl.",
"a ; 1 z j &.w S.'.6 X oX<.Z uXS J >.N s.< Z n =.L T t.8 ^ 5 8Xe.",
"a.H.!.x.< w.S L 4 e.0.= d..Xq S o i r q - -  .=.B . l.X 8 e S Q ",
"*.l = } S. .R.r qXy.4 i k '.l.]. Xo L.,.' { r ) u : AX~.q 2.F $ ",
"  &X= j - ; B V.@ # OXF.6 g @XpX% I A.@.H.{ u p.6 h $ y d.= = ].",
"@ $.9 ` 2 , U 0 7 g ; q j ^ s.) XXy.m g.XX6 C V a.<Xo Q.(.o.9 ^.",
"i.c.z.z.& * # 7 % # p 7 & ^.f h.: _.c G @ y.7 @ i.3.I 3.@ @ 3. X"
};
