/* XPM */
static char * collectible_xpm[] = {
"32 32 28 1",
" 	c None",
".	c #D1851E",
"+	c #9B4C51",
"@	c #62ABD4",
"#	c #FFD569",
"$	c #7144FF",
"%	c #3D253B",
"&	c #AF69BF",
"*	c #9BF0FD",
"=	c #EAA5FF",
"-	c #427F3B",
";	c #2A5A39",
">	c #CAE6F5",
",	c #606060",
"'	c #E84444",
")	c #5880CC",
"!	c #802954",
"~	c #9A8571",
"{	c #D01946",
"]	c #BF704D",
"^	c #DFBBB3",
"/	c #895A45",
"(	c #E6DECA",
"_	c #56587B",
":	c #A7ACBA",
"<	c #523B40",
"[	c #FFFFFF",
"}	c #000000",
"                                ",
"                 _!&&&          ",
"               _!!&&&&!         ",
"              _!!!&===&         ",
"             _!!!!&====!        ",
"            _!!!!&&====&        ",
"          _!!!!!!&&====&!       ",
"         _!!!!!!!&&&===&&!      ",
"        _!!!!!!!&&&&&&&&&&      ",
"       _!!!!!!!!&&&&&&&&&&!     ",
"     _!!!!!!!!&&&&&&======&!    ",
"    _!<<<!!!&&&&&==========&!   ",
"   _<<<<<<!!&&&&===========&!!  ",
"   <<<<<<<!!&&&&====&&!!____!!  ",
"  _<<<<<<<!!!&&&!____$$$$$$$_!  ",
"  _<<<<<<!________$$$$$$$$$$_!  ",
"  <<<<_____$$$$$$$$$$$$$$$_!!   ",
" _<_____$$$$)))@@)$$$$$$_!!!    ",
" ______$$)))@@@@@@)$$$_!!!      ",
" _<____$))))@@@@@@))!!!         ",
"  _<____)))@@@:@@@@)            ",
"   __<<__))@@::@@::             ",
"      ___<)::::^^^^:            ",
"          @:::^^^^^^^^:         ",
"          @:::^^^^^^^^^^        ",
"          ):::^^^^^^^^^^        ",
"           ):::^^^^^^^^^)       ",
"           @::::^^^^^^^^)       ",
"            ):::::^^^^^:)       ",
"             @):::::::::)       ",
"               @)):::::))       ",
"                                "};
