/* XPM */
static char * player_xpm[] = {
"32 32 11 1",
" 	c None",
".	c #5E2C29",
"+	c #1C121B",
"@	c #FDA216",
"#	c #1C1A30",
"$	c #FC5003",
"%	c #94A0BA",
"&	c #2A304E",
"*	c #667291",
"=	c #FCFEFE",
"-	c #000000",
"                                ",
"                                ",
"                                ",
"                                ",
"                                ",
"                                ",
"            &&&&&&              ",
"          &&=====%&&            ",
"        &&========%%&           ",
"       &=====*******%&          ",
"      &=====*********&          ",
"     &======***&&****&&         ",
"    &======***&==****=&         ",
"   &=======***#==****=&         ",
"   &===*===***###*++*#*&        ",
"   &&&&*===*******+++**&        ",
"      &%===*******+++**&        ",
"      &=====******&&+**&        ",
"       &====**********&         ",
"       &=====****=%%**&         ",
"        &=========%%%&          ",
"       &&..======%%%&           ",
"      &===%....%%%%.*&          ",
"     &========%....**&          ",
"    &===========$@@%**&         ",
"    &====*======$@@%**&         ",
"    &===&*======$@@%**&         ",
"     &&&&%=======%%*&&          ",
"        &=======%%***&          ",
"        &======&*****&          ",
"        &=====& &****&          ",
"        &====&  &****&          "};
